# xmcd
#
# Track frame offsets: 
#        150
#        18615
#        24656
#        26668
#        30674
#        62257
#        69628
#        82236
#        89051
#        95727
#        131391
#        160218
#        163456
#        176093
#        195975
#        202663
#        205922
#        209798
#        212894
#        217477
#        220039
#        224690
#        230801
#        240587
#        246927
#        259572
#        264428
#        280846
#        298636
#        300315
#        309094
#        316227
#
# Disc length: 4424 seconds
#
# Revision: 0
# Processed by: cddbd v1.5.2PL0 Copyright (c) Steve Scherf et al.
# Submitted via: ExactAudioCopy v0.95b3
#
DISCID=ed114620
DTITLE=Jimi Hendrix  - Unsurpassed Masters Volume 5 
DYEAR=1900
DGENRE=
TTITLE0=Power Of Love Session 16 January 1970
TTITLE1=Power Of Love Session 16 January 1970
TTITLE2=Power Of Love Session 16 January 1970
TTITLE3=Power Of Love Session 16 January 1970
TTITLE4=Power Of Love Session 16 January 1970
TTITLE5=SMLTL-Live And Let Live Session 16 January 1970
TTITLE6=SMLTL-Live And Let Live Session 16 January 1970
TTITLE7=SMLTL-Live And Let Live Session 16 January 1970
TTITLE8=SMLTL-Live And Let Live Session 16 January 1970
TTITLE9=SMLTL-Live And Let Live Session 16 January 1970
TTITLE10=Jimi On Bass Session 15 June 1970
TTITLE11=Bolero-Come Down Hard On Me Baby-Midnight Lightnight Session 
TTITLE11=14 July 1970
TTITLE12=Bolero-Come Down Hard On Me Baby-Midnight Lightnight Session 
TTITLE12=14 July 1970
TTITLE13=Bolero-Come Down Hard On Me Baby-Midnight Lightnight Session 
TTITLE13=14 July 1970
TTITLE14=Bolero-Come Down Hard On Me Baby-Midnight Lightnight Session 
TTITLE14=14 July 1970
TTITLE15=Bolero-Come Down Hard On Me Baby-Midnight Lightnight Session 
TTITLE15=14 July 1970
TTITLE16=Bolero-Come Down Hard On Me Baby-Midnight Lightnight Session 
TTITLE16=14 July 1970
TTITLE17=Bolero-Come Down Hard On Me Baby-Midnight Lightnight Session 
TTITLE17=14 July 1970
TTITLE18=Bolero-Come Down Hard On Me Baby-Midnight Lightnight Session 
TTITLE18=14 July 1970
TTITLE19=Bolero-Come Down Hard On Me Baby-Midnight Lightnight Session 
TTITLE19=14 July 1970
TTITLE20=Bolero-Come Down Hard On Me Baby-Midnight Lightnight Session 
TTITLE20=14 July 1970
TTITLE21=Bolero-Come Down Hard On Me Baby-Midnight Lightnight Session 
TTITLE21=14 July 1970
TTITLE22=Bolero-Come Down Hard On Me Baby-Midnight Lightnight Session 
TTITLE22=14 July 1970
TTITLE23=Bolero-Come Down Hard On Me Baby-Midnight Lightnight Session 
TTITLE23=14 July 1970
TTITLE24=Bolero-Come Down Hard On Me Baby-Midnight Lightnight Session 
TTITLE24=14 July 1970
TTITLE25=Bolero-Come Down Hard On Me Baby-Midnight Lightnight Session 
TTITLE25=14 July 1970
TTITLE26=Bolero-Come Down Hard On Me Baby-Midnight Lightnight Session 
TTITLE26=14 July 1970
TTITLE27=Bolero-Come Down Hard On Me Baby-Midnight Lightnight Session 
TTITLE27=14 July 1970
TTITLE28=Bolero-Come Down Hard On Me Baby-Midnight Lightnight Session 
TTITLE28=14 July 1970
TTITLE29=Bolero-Come Down Hard On Me Baby-Midnight Lightnight Session 
TTITLE29=14 July 1970
TTITLE30=Bolero-Come Down Hard On Me Baby-Midnight Lightnight Session 
TTITLE30=14 July 1970
TTITLE31=Bolero-Come Down Hard On Me Baby-Midnight Lightnight Session 
TTITLE31=14 July 1970
EXTD=
EXTT0=
EXTT1=
EXTT2=
EXTT3=
EXTT4=
EXTT5=
EXTT6=
EXTT7=
EXTT8=
EXTT9=
EXTT10=
EXTT11=
EXTT12=
EXTT13=
EXTT14=
EXTT15=
EXTT16=
EXTT17=
EXTT18=
EXTT19=
EXTT20=
EXTT21=
EXTT22=
EXTT23=
EXTT24=
EXTT25=
EXTT26=
EXTT27=
EXTT28=
EXTT29=
EXTT30=
EXTT31=
PLAYORDER=
